<svg width="46" height="46" viewBox="0 0 46 46" fill="none" xmlns="http://www.w3.org/2000/svg">
<circle cx="23" cy="23" r="23" fill="#C68B4D"/>
<path d="M35.9434 9.04339C32.5471 5.89207 27.9986 3.96533 23 3.96533C12.4875 3.96533 3.96552 12.4874 3.96552 22.9998C3.96552 33.5123 12.4875 42.0343 23 42.0343C33.5125 42.0343 42.0345 33.5123 42.0345 22.9998C42.0345 19.4492 41.0623 16.1257 39.3697 13.2808" stroke="white"/>
<circle cx="35.2931" cy="9.12045" r="1.98276" fill="white"/>
<g clip-path="url(#clip0_55_681)">
<path d="M22.7812 32.5833C21.8229 32.5833 20.9479 32.2083 20.2812 31.5417C19.7812 31.0417 19.0729 30.75 18.3646 30.75C16.4062 30.75 14.8229 29.1667 14.8229 27.2083C14.8229 26.5 14.5312 25.7917 14.0312 25.2917C12.6562 23.9167 12.6562 21.6667 14.0312 20.2917C14.5312 19.7917 14.8229 19.0833 14.8229 18.375C14.8229 16.4167 16.4062 14.8333 18.3646 14.8333C19.0729 14.8333 19.7812 14.5417 20.2812 14.0417C20.9479 13.375 21.8229 13 22.7812 13C23.7396 13 24.6146 13.375 25.2812 14.0417C25.7812 14.5417 26.4896 14.8333 27.1979 14.8333C29.1562 14.8333 30.7396 16.4167 30.7396 18.375C30.7396 19.0833 31.0312 19.7917 31.5312 20.2917C32.9062 21.6667 32.9062 23.9167 31.5312 25.2917C31.0312 25.7917 30.7396 26.5 30.7396 27.2083C30.7396 29.1667 29.1562 30.75 27.1979 30.75C26.4896 30.75 25.7812 31.0417 25.2812 31.5417C24.6146 32.2083 23.7396 32.5833 22.7812 32.5833ZM22.7812 13.8333C22.0729 13.8333 21.3646 14.125 20.8646 14.625C20.1979 15.2917 19.3229 15.6667 18.3646 15.6667C16.8646 15.6667 15.6562 16.875 15.6562 18.375C15.6562 19.3333 15.2812 20.2083 14.6146 20.875C13.5729 21.9167 13.5729 23.6667 14.6146 24.7083C15.2812 25.375 15.6562 26.25 15.6562 27.2083C15.6562 28.7083 16.8646 29.9167 18.3646 29.9167C19.3229 29.9167 20.1979 30.2917 20.8646 30.9583C21.3646 31.4583 22.0729 31.75 22.7812 31.75C23.4896 31.75 24.1979 31.4583 24.6979 30.9583C25.3646 30.2917 26.2396 29.9167 27.1979 29.9167C28.6979 29.9167 29.9062 28.7083 29.9062 27.2083C29.9062 26.25 30.2812 25.375 30.9479 24.7083C31.9896 23.6667 31.9896 21.9167 30.9479 20.875C30.2812 20.2083 29.9062 19.3333 29.9062 18.375C29.9062 16.875 28.6979 15.6667 27.1979 15.6667C26.2396 15.6667 25.3646 15.2917 24.6979 14.625C24.1979 14.125 23.4896 13.8333 22.7812 13.8333Z" fill="white"/>
<path d="M18.3656 27.1184L16.9063 23.7877L18.1814 23.2291C18.4221 23.1236 18.6387 23.0739 18.8314 23.08C19.0246 23.0845 19.1893 23.1345 19.3255 23.2299C19.4627 23.3249 19.5674 23.4548 19.6396 23.6196C19.699 23.7551 19.7238 23.8825 19.714 24.0018C19.7038 24.12 19.6678 24.2282 19.6061 24.3263C19.5444 24.4244 19.4651 24.5102 19.368 24.5837L19.3823 24.6162C19.5033 24.571 19.6325 24.5577 19.7699 24.5763C19.9079 24.5934 20.0378 24.6463 20.1594 24.7352C20.2811 24.8241 20.3789 24.9531 20.453 25.1222C20.5286 25.2946 20.5547 25.4679 20.5316 25.6422C20.508 25.8154 20.4295 25.9784 20.2961 26.1311C20.1627 26.2839 19.9686 26.4161 19.7138 26.5278L18.3656 27.1184ZM18.7481 26.3499L19.397 26.0656C19.616 25.9697 19.7555 25.8588 19.8154 25.7331C19.8759 25.6057 19.8772 25.4759 19.8192 25.3437C19.776 25.245 19.7127 25.1668 19.6292 25.109C19.5453 25.0502 19.4483 25.0177 19.3384 25.0116C19.228 25.0044 19.1104 25.0281 18.9857 25.0827L18.3206 25.3741L18.7481 26.3499ZM18.1303 24.9399L18.7272 24.6784C18.8313 24.6328 18.9167 24.5727 18.9836 24.4982C19.05 24.4226 19.0916 24.3391 19.1084 24.2477C19.1259 24.1548 19.1132 24.0595 19.0704 23.962C19.0139 23.8329 18.9218 23.7466 18.7942 23.7031C18.6676 23.659 18.5154 23.6759 18.3376 23.7538L17.7277 24.021L18.1303 24.9399ZM21.3755 25.7997L19.9163 22.469L22.0825 21.5199L22.3041 22.0257L20.7412 22.7104L21.1374 23.6147L22.5881 22.9791L22.8097 23.4849L21.359 24.1205L21.7573 25.0296L23.3332 24.3391L23.5548 24.8449L21.3755 25.7997ZM24.9094 21.3728C24.8319 21.2374 24.7195 21.1548 24.5721 21.1251C24.4257 21.0949 24.2631 21.119 24.0842 21.1973C23.9584 21.2524 23.8589 21.3187 23.7855 21.3961C23.7122 21.4734 23.6659 21.5551 23.6467 21.641C23.6275 21.727 23.6356 21.812 23.6711 21.8959C23.7015 21.9653 23.7436 22.0186 23.7974 22.0558C23.8522 22.0925 23.9151 22.1166 23.9861 22.1282C24.0566 22.1386 24.1307 22.1411 24.2083 22.1355C24.286 22.1299 24.3626 22.1202 24.438 22.1066L24.7844 22.0478C24.923 22.022 25.0613 22.0086 25.1991 22.0077C25.3381 22.0062 25.4703 22.0233 25.5957 22.0588C25.7222 22.0938 25.836 22.1532 25.9373 22.2367C26.0385 22.3203 26.1207 22.4342 26.1839 22.5784C26.2694 22.7736 26.2948 22.9673 26.2601 23.1595C26.225 23.3507 26.1314 23.5293 25.9793 23.6955C25.8278 23.86 25.6187 24.0008 25.352 24.1176C25.0929 24.2311 24.8503 24.2896 24.6244 24.293C24.3995 24.2959 24.1996 24.2439 24.0249 24.1369C23.8511 24.0295 23.7115 23.8671 23.6059 23.6497L24.1995 23.3897C24.259 23.5019 24.3371 23.5827 24.4337 23.6321C24.5303 23.6816 24.6374 23.7032 24.7548 23.6969C24.8734 23.6902 24.9955 23.6593 25.1213 23.6042C25.2525 23.5467 25.3588 23.4769 25.4404 23.3946C25.5226 23.3108 25.5764 23.2213 25.6019 23.1261C25.6269 23.0299 25.6191 22.9338 25.5784 22.8379C25.5393 22.7516 25.4825 22.6912 25.4079 22.6567C25.3328 22.6211 25.242 22.604 25.1354 22.6055C25.0294 22.6054 24.9101 22.6163 24.7775 22.6382L24.3559 22.7067C24.0507 22.7564 23.787 22.7446 23.565 22.6713C23.3435 22.5965 23.1805 22.4398 23.076 22.2012C22.99 22.005 22.9678 21.8099 23.0095 21.6159C23.0522 21.4214 23.1479 21.2431 23.2966 21.081C23.4448 20.9179 23.6355 20.7852 23.8686 20.6831C24.105 20.5796 24.3301 20.53 24.544 20.5345C24.7585 20.5375 24.9486 20.5892 25.1142 20.6899C25.2793 20.7894 25.4045 20.9323 25.49 21.1184L24.9094 21.3728ZM25.7475 20.5171L25.5259 20.0113L28.1833 18.847L28.4049 19.3528L27.3754 19.8039L28.6131 22.6288L28.0146 22.891L26.7769 20.0661L25.7475 20.5171Z" fill="white"/>
</g>
<defs>
<clipPath id="clip0_55_681">
<rect width="20" height="20" fill="white" transform="translate(13 13)"/>
</clipPath>
</defs>
</svg>
