<svg width="95" height="30" viewBox="0 0 95 30" fill="none" xmlns="http://www.w3.org/2000/svg">
<rect x="0.5" y="0.5" width="94" height="29" rx="3.5" fill="#E51136" stroke="#E51136"/>
<path d="M80.3093 4H71.425H7C5.34315 4 4 5.34315 4 7V23C4 24.6569 5.34315 26 7 26H88C89.6569 26 91 24.6569 91 23V7C91 5.34315 89.6569 4 88 4H86.1063" stroke="white" stroke-linecap="round"/>
<path d="M14.2609 19V11.7273H16.9243C17.4404 11.7273 17.8677 11.8125 18.2062 11.983C18.5448 12.151 18.7981 12.3795 18.9662 12.6683C19.1343 12.9548 19.2183 13.2779 19.2183 13.6378C19.2183 13.9408 19.1627 14.1965 19.0514 14.4048C18.9401 14.6108 18.791 14.7765 18.604 14.902C18.4193 15.0251 18.2157 15.1151 17.9932 15.1719V15.2429C18.2346 15.2547 18.4702 15.3329 18.6998 15.4773C18.9318 15.6193 19.1236 15.8217 19.2751 16.0845C19.4266 16.3473 19.5024 16.6669 19.5024 17.0433C19.5024 17.415 19.4148 17.7488 19.2396 18.0447C19.0668 18.3383 18.7993 18.5715 18.4371 18.7443C18.0748 18.9148 17.612 19 17.0486 19H14.2609ZM15.3582 18.0589H16.942C17.4676 18.0589 17.844 17.9571 18.0713 17.7536C18.2986 17.55 18.4122 17.2955 18.4122 16.9901C18.4122 16.7604 18.3542 16.5497 18.2382 16.358C18.1222 16.1662 17.9565 16.0135 17.741 15.8999C17.528 15.7862 17.2747 15.7294 16.9811 15.7294H15.3582V18.0589ZM15.3582 14.8736H16.8284C17.0746 14.8736 17.296 14.8262 17.4925 14.7315C17.6913 14.6368 17.8488 14.5043 17.9648 14.3338C18.0831 14.161 18.1423 13.9574 18.1423 13.723C18.1423 13.4223 18.037 13.1702 17.8263 12.9666C17.6156 12.763 17.2924 12.6612 16.8568 12.6612H15.3582V14.8736ZM20.8039 19V11.7273H25.3635V12.6719H21.9012V14.8878H25.1256V15.8288H21.9012V18.0554H25.4062V19H20.8039ZM30.7959 13.6378C30.758 13.3016 30.6018 13.0412 30.3271 12.8565C30.0525 12.6695 29.7069 12.576 29.2902 12.576C28.9919 12.576 28.7339 12.6233 28.5161 12.718C28.2983 12.8104 28.129 12.9382 28.0083 13.1016C27.8899 13.2625 27.8307 13.446 27.8307 13.652C27.8307 13.8248 27.8709 13.974 27.9514 14.0994C28.0343 14.2249 28.142 14.3303 28.2746 14.4155C28.4095 14.4983 28.5539 14.5682 28.7078 14.625C28.8617 14.6795 29.0097 14.7244 29.1517 14.7599L29.8619 14.9446C30.094 15.0014 30.3319 15.0784 30.5757 15.1754C30.8196 15.2725 31.0457 15.4003 31.254 15.5589C31.4623 15.7176 31.6304 15.9141 31.7583 16.1484C31.8885 16.3828 31.9536 16.6634 31.9536 16.9901C31.9536 17.402 31.847 17.7678 31.634 18.0874C31.4233 18.407 31.1167 18.6591 30.7142 18.8438C30.3141 19.0284 29.83 19.1207 29.2618 19.1207C28.7173 19.1207 28.2462 19.0343 27.8485 18.8615C27.4507 18.6887 27.1394 18.4437 26.9145 18.1264C26.6896 17.8068 26.5653 17.428 26.5416 16.9901H27.6425C27.6638 17.2528 27.749 17.4718 27.8982 17.647C28.0497 17.8198 28.2426 17.9489 28.477 18.0341C28.7137 18.117 28.973 18.1584 29.2547 18.1584C29.5648 18.1584 29.8406 18.1098 30.0821 18.0128C30.326 17.9134 30.5177 17.776 30.6574 17.6009C30.7971 17.4233 30.8669 17.2161 30.8669 16.9794C30.8669 16.764 30.8054 16.5876 30.6823 16.4503C30.5615 16.313 30.397 16.1993 30.1887 16.1094C29.9827 16.0194 29.7495 15.9401 29.4891 15.8714L28.6297 15.6371C28.0473 15.4785 27.5857 15.2453 27.2448 14.9375C26.9062 14.6297 26.7369 14.2225 26.7369 13.7159C26.7369 13.2969 26.8506 12.9311 27.0779 12.6186C27.3051 12.3061 27.6129 12.0634 28.0012 11.8906C28.3894 11.7154 28.8274 11.6278 29.3151 11.6278C29.8075 11.6278 30.2419 11.7143 30.6183 11.8871C30.9971 12.0599 31.2954 12.2978 31.5132 12.6009C31.731 12.9015 31.8447 13.2472 31.8541 13.6378H30.7959ZM32.9062 12.6719V11.7273H38.5347V12.6719H36.2655V19H35.1718V12.6719H32.9062ZM39.5335 19H38.3687L40.9859 11.7273H42.2536L44.8708 19H43.7061L41.6499 13.0483H41.5931L39.5335 19ZM39.7288 16.152H43.5072V17.0753H39.7288V16.152ZM40.5775 10.8714C40.4094 10.8714 40.2626 10.8099 40.1372 10.6868C40.0117 10.5613 39.949 10.4169 39.949 10.2536C39.949 10.076 40.0117 9.92803 40.1372 9.80966C40.2626 9.69129 40.4094 9.6321 40.5775 9.6321C40.7551 9.6321 40.903 9.69129 41.0214 9.80966C41.1421 9.92803 41.2025 10.076 41.2025 10.2536C41.2025 10.4169 41.1421 10.5613 41.0214 10.6868C40.903 10.8099 40.7551 10.8714 40.5775 10.8714ZM42.6656 10.8714C42.4975 10.8714 42.3507 10.8099 42.2252 10.6868C42.0998 10.5613 42.037 10.4169 42.037 10.2536C42.037 10.076 42.0998 9.92803 42.2252 9.80966C42.3507 9.69129 42.4975 9.6321 42.6656 9.6321C42.8431 9.6321 42.9911 9.69129 43.1095 9.80966C43.2302 9.92803 43.2906 10.076 43.2906 10.2536C43.2906 10.4169 43.2302 10.5613 43.1095 10.6868C42.9911 10.8099 42.8431 10.8714 42.6656 10.8714ZM45.9211 19V11.7273H47.0184V18.0554H50.3138V19H45.9211ZM51.5656 19V11.7273H52.6629V18.0554H55.9584V19H51.5656ZM63.0802 11.7273V19H62.0716L58.3749 13.6662H58.3074V19H57.2101V11.7273H58.2258L61.926 17.0682H61.9935V11.7273H63.0802ZM65.7781 11.7273V19H64.6808V11.7273H65.7781ZM73.2462 11.7273V19H72.2377L68.5409 13.6662H68.4735V19H67.3762V11.7273H68.3918L72.0921 17.0682H72.1595V11.7273H73.2462ZM79.7687 14.0249C79.7001 13.8094 79.6077 13.6165 79.4917 13.446C79.3781 13.2732 79.242 13.1264 79.0834 13.0057C78.9247 12.8826 78.7436 12.7891 78.54 12.7251C78.3388 12.6612 78.1175 12.6293 77.876 12.6293C77.4664 12.6293 77.0971 12.7346 76.768 12.9453C76.439 13.156 76.1785 13.465 75.9868 13.8722C75.7974 14.277 75.7027 14.773 75.7027 15.3601C75.7027 15.9496 75.7986 16.4479 75.9903 16.8551C76.1821 17.2623 76.4449 17.5713 76.7787 17.782C77.1125 17.9927 77.4925 18.098 77.9186 18.098C78.314 18.098 78.6584 18.0175 78.952 17.8565C79.2479 17.6955 79.4764 17.4683 79.6373 17.1747C79.8007 16.8788 79.8824 16.5308 79.8824 16.1307L80.1665 16.1839H78.0855V15.2784H80.9442V16.1058C80.9442 16.7166 80.814 17.2469 80.5535 17.6967C80.2955 18.1442 79.938 18.4898 79.4811 18.7337C79.0265 18.9775 78.5057 19.0994 77.9186 19.0994C77.2604 19.0994 76.6828 18.9479 76.1856 18.6449C75.6908 18.3419 75.305 17.9122 75.028 17.3558C74.751 16.7971 74.6125 16.1342 74.6125 15.3672C74.6125 14.7872 74.693 14.2663 74.854 13.8047C75.0149 13.343 75.241 12.9512 75.5322 12.6293C75.8258 12.3049 76.1702 12.0575 76.5656 11.8871C76.9633 11.7143 77.3978 11.6278 77.8689 11.6278C78.2619 11.6278 78.6276 11.6858 78.9662 11.8018C79.3071 11.9179 79.6101 12.0824 79.8753 12.2955C80.1428 12.5085 80.3641 12.7618 80.5393 13.0554C80.7145 13.3466 80.8329 13.6697 80.8944 14.0249H79.7687Z" fill="white"/>
<circle cx="86" cy="4" r="2" fill="white"/>
</svg>
