<svg width="46" height="46" viewBox="0 0 46 46" fill="none" xmlns="http://www.w3.org/2000/svg">
<circle cx="23" cy="23" r="23" fill="#D4D4D4"/>
<path d="M35.9435 9.04339C32.5471 5.89207 27.9986 3.96533 23.0001 3.96533C12.4876 3.96533 3.96558 12.4874 3.96558 22.9998C3.96558 33.5123 12.4876 42.0343 23.0001 42.0343C33.5125 42.0343 42.0345 33.5123 42.0345 22.9998C42.0345 19.4492 41.0624 16.1257 39.3697 13.2808" stroke="white"/>
<circle cx="35.2931" cy="9.12045" r="1.98276" fill="white"/>
<g clip-path="url(#clip0_41_574)">
<path d="M16.8938 26.6991C18.3554 26.6991 19.5403 25.5108 19.5403 24.0449C19.5403 22.579 18.3554 21.3906 16.8938 21.3906C15.4321 21.3906 14.2472 22.579 14.2472 24.0449C14.2472 25.5108 15.4321 26.6991 16.8938 26.6991Z" stroke="#7A7A7A" stroke-width="0.5" stroke-miterlimit="10" stroke-linecap="round" stroke-linejoin="round"/>
<path d="M20.3968 32.238H13.3906V29.1677C13.3906 27.8044 14.4958 26.6992 15.8591 26.6992H17.9284C19.2917 26.6992 20.3968 27.8044 20.3968 29.1677V32.238Z" stroke="#7A7A7A" stroke-width="0.5" stroke-miterlimit="10" stroke-linecap="round" stroke-linejoin="round"/>
<path d="M29.1063 26.6991C30.5679 26.6991 31.7528 25.5108 31.7528 24.0449C31.7528 22.579 30.5679 21.3906 29.1063 21.3906C27.6446 21.3906 26.4597 22.579 26.4597 24.0449C26.4597 25.5108 27.6446 26.6991 29.1063 26.6991Z" stroke="#7A7A7A" stroke-width="0.5" stroke-miterlimit="10" stroke-linecap="round" stroke-linejoin="round"/>
<path d="M32.6094 32.238H25.6031V29.1677C25.6031 27.8044 26.7083 26.6992 28.0716 26.6992H30.1409C31.5042 26.6992 32.6094 27.8044 32.6094 29.1677V32.238Z" stroke="#7A7A7A" stroke-width="0.5" stroke-miterlimit="10" stroke-linecap="round" stroke-linejoin="round"/>
<path d="M23 28.122C24.0861 28.122 24.9666 27.2389 24.9666 26.1496C24.9666 25.0603 24.0861 24.1772 23 24.1772C21.9138 24.1772 21.0333 25.0603 21.0333 26.1496C21.0333 27.2389 21.9138 28.122 23 28.122Z" stroke="#7A7A7A" stroke-width="0.5" stroke-miterlimit="10" stroke-linecap="round" stroke-linejoin="round"/>
<path d="M25.6032 32.238H20.3969V29.9564C20.3969 28.9433 21.2181 28.1221 22.2312 28.1221H23.7688C24.7819 28.1221 25.6032 28.9433 25.6032 29.9564V32.238Z" stroke="#7A7A7A" stroke-width="0.5" stroke-miterlimit="10" stroke-linecap="round" stroke-linejoin="round"/>
<path d="M25.379 13.7622C24.046 13.7622 23.0002 15.2611 23.0002 15.2611C23.0002 15.2611 22.0137 13.7622 20.6208 13.7622C19.266 13.7622 18.1596 14.8891 18.0872 16.2535C18.0464 17.0244 18.2928 17.611 18.6399 18.1423C19.3337 19.2038 22.3666 21.7594 23.0046 21.7594C23.6558 21.7594 26.6617 19.2131 27.3601 18.1423C27.708 17.6085 27.9537 17.0244 27.9128 16.2535C27.8403 14.8891 26.7339 13.7622 25.379 13.7622Z" stroke="#7A7A7A" stroke-width="0.5" stroke-miterlimit="10" stroke-linecap="round" stroke-linejoin="round"/>
</g>
<defs>
<clipPath id="clip0_41_574">
<rect width="20" height="20" fill="white" transform="translate(13 13)"/>
</clipPath>
</defs>
</svg>
