<svg width="68" height="30" viewBox="0 0 68 30" fill="none" xmlns="http://www.w3.org/2000/svg">
<rect x="0.5" y="0.5" width="67" height="29" rx="3.5" fill="#C6B7A7" stroke="#C6B7A7"/>
<path d="M50 4H45.5H7C5.34315 4 4 5.34315 4 7V23C4 24.6569 5.34315 26 7 26H61C62.6569 26 64 24.6569 64 23V7C64 5.34315 62.6569 4 61 4H58H55" stroke="white" stroke-linecap="round"/>
<path d="M19.8058 19V11.7273H24.3158V12.6719H20.9031V14.8878H23.9926V15.8288H20.9031V19H19.8058ZM25.3714 19H24.2066L26.8238 11.7273H28.0915L30.7087 19H29.5439L27.4878 13.0483H27.431L25.3714 19ZM25.5667 16.152H29.3451V17.0753H25.5667V16.152ZM35.667 13.6378C35.6291 13.3016 35.4729 13.0412 35.1982 12.8565C34.9236 12.6695 34.578 12.576 34.1613 12.576C33.863 12.576 33.605 12.6233 33.3872 12.718C33.1694 12.8104 33.0001 12.9382 32.8794 13.1016C32.761 13.2625 32.7018 13.446 32.7018 13.652C32.7018 13.8248 32.742 13.974 32.8225 14.0994C32.9054 14.2249 33.0131 14.3303 33.1457 14.4155C33.2806 14.4983 33.425 14.5682 33.5789 14.625C33.7328 14.6795 33.8808 14.7244 34.0228 14.7599L34.733 14.9446C34.9651 15.0014 35.203 15.0784 35.4468 15.1754C35.6907 15.2725 35.9168 15.4003 36.1251 15.5589C36.3334 15.7176 36.5015 15.9141 36.6294 16.1484C36.7596 16.3828 36.8247 16.6634 36.8247 16.9901C36.8247 17.402 36.7181 17.7678 36.5051 18.0874C36.2944 18.407 35.9878 18.6591 35.5853 18.8438C35.1852 19.0284 34.7011 19.1207 34.1329 19.1207C33.5884 19.1207 33.1173 19.0343 32.7195 18.8615C32.3218 18.6887 32.0105 18.4437 31.7856 18.1264C31.5607 17.8068 31.4364 17.428 31.4127 16.9901H32.5136C32.5349 17.2528 32.6201 17.4718 32.7693 17.647C32.9208 17.8198 33.1137 17.9489 33.3481 18.0341C33.5848 18.117 33.8441 18.1584 34.1258 18.1584C34.4359 18.1584 34.7117 18.1098 34.9532 18.0128C35.1971 17.9134 35.3888 17.776 35.5285 17.6009C35.6682 17.4233 35.738 17.2161 35.738 16.9794C35.738 16.764 35.6765 16.5876 35.5534 16.4503C35.4326 16.313 35.2681 16.1993 35.0597 16.1094C34.8538 16.0194 34.6206 15.9401 34.3602 15.8714L33.5008 15.6371C32.9184 15.4785 32.4568 15.2453 32.1159 14.9375C31.7773 14.6297 31.608 14.2225 31.608 13.7159C31.608 13.2969 31.7217 12.9311 31.949 12.6186C32.1762 12.3061 32.484 12.0634 32.8722 11.8906C33.2605 11.7154 33.6985 11.6278 34.1862 11.6278C34.6786 11.6278 35.113 11.7143 35.4894 11.8871C35.8682 12.0599 36.1665 12.2978 36.3843 12.6009C36.6021 12.9015 36.7158 13.2472 36.7252 13.6378H35.667ZM37.7773 12.6719V11.7273H43.4058V12.6719H41.1366V19H40.0429V12.6719H37.7773ZM44.4046 19H43.2398L45.857 11.7273H47.1247L49.7419 19H48.5771L46.521 13.0483H46.4642L44.4046 19ZM44.5999 16.152H48.3783V17.0753H44.5999V16.152Z" fill="white"/>
<circle cx="56" cy="4" r="2" fill="white"/>
</svg>
