<svg width="46" height="46" viewBox="0 0 46 46" fill="none" xmlns="http://www.w3.org/2000/svg">
<circle cx="23" cy="23" r="23" fill="#E51136"/>
<path d="M35.9434 9.04339C32.5471 5.89207 27.9986 3.96533 23 3.96533C12.4875 3.96533 3.96552 12.4874 3.96552 22.9998C3.96552 33.5123 12.4875 42.0343 23 42.0343C33.5125 42.0343 42.0345 33.5123 42.0345 22.9998C42.0345 19.4492 41.0623 16.1257 39.3697 13.2808" stroke="white"/>
<circle cx="35.2931" cy="9.12045" r="1.98276" fill="white"/>
<g clip-path="url(#clip0_55_733)">
<path d="M23 32.7918C22.0417 32.7918 21.1667 32.4168 20.5 31.7502C20 31.2502 19.2917 30.9585 18.5833 30.9585C16.625 30.9585 15.0417 29.3752 15.0417 27.4168C15.0417 26.7085 14.75 26.0002 14.25 25.5002C12.875 24.1252 12.875 21.8752 14.25 20.5002C14.75 20.0002 15.0417 19.2918 15.0417 18.5835C15.0417 16.6252 16.625 15.0418 18.5833 15.0418C19.2917 15.0418 20 14.7502 20.5 14.2502C21.1667 13.5835 22.0417 13.2085 23 13.2085C23.9583 13.2085 24.8333 13.5835 25.5 14.2502C26 14.7502 26.7083 15.0418 27.4167 15.0418C29.375 15.0418 30.9583 16.6252 30.9583 18.5835C30.9583 19.2918 31.25 20.0002 31.75 20.5002C33.125 21.8752 33.125 24.1252 31.75 25.5002C31.25 26.0002 30.9583 26.7085 30.9583 27.4168C30.9583 29.3752 29.375 30.9585 27.4167 30.9585C26.7083 30.9585 26 31.2502 25.5 31.7502C24.8333 32.4168 23.9583 32.7918 23 32.7918ZM23 14.0418C22.2917 14.0418 21.5833 14.3335 21.0833 14.8335C20.4167 15.5002 19.5417 15.8752 18.5833 15.8752C17.0833 15.8752 15.875 17.0835 15.875 18.5835C15.875 19.5418 15.5 20.4168 14.8333 21.0835C13.7917 22.1252 13.7917 23.8752 14.8333 24.9168C15.5 25.5835 15.875 26.4585 15.875 27.4168C15.875 28.9168 17.0833 30.1252 18.5833 30.1252C19.5417 30.1252 20.4167 30.5002 21.0833 31.1668C21.5833 31.6668 22.2917 31.9585 23 31.9585C23.7083 31.9585 24.4167 31.6668 24.9167 31.1668C25.5833 30.5002 26.4583 30.1252 27.4167 30.1252C28.9167 30.1252 30.125 28.9168 30.125 27.4168C30.125 26.4585 30.5 25.5835 31.1667 24.9168C32.2083 23.8752 32.2083 22.1252 31.1667 21.0835C30.5 20.4168 30.125 19.5418 30.125 18.5835C30.125 17.0835 28.9167 15.8752 27.4167 15.8752C26.4583 15.8752 25.5833 15.5002 24.9167 14.8335C24.4167 14.3335 23.7083 14.0418 23 14.0418Z" fill="white"/>
<path d="M17.75 27.0835L16.3333 23.2918L17.0833 23.0002L19.5833 25.0002L18.6666 22.4585L19.375 22.2085L20.75 26.0418L19.9583 26.3335L17.5 24.4168L18.4166 26.9168L17.75 27.0835Z" fill="white"/>
<path d="M21.5833 25.7085L20.2083 21.8752L23.0416 20.8335L23.2916 21.4585L21.25 22.2085L21.5416 23.0418L23.4583 22.3335L23.7083 22.9585L21.75 23.7502L22.125 24.7918L24.25 24.0002L24.5 24.6252L21.5833 25.7085Z" fill="white"/>
<path d="M25.6667 24.2083L23.375 20.7083L24.1667 20.4167L25.7083 22.8333L25.4583 19.9583L26.375 19.625L28 22.0417L27.5833 19.1667L28.375 18.875L28.8333 23.0417L28 23.3333L26.2083 20.75L26.5 23.875L25.6667 24.2083Z" fill="white"/>
</g>
<defs>
<clipPath id="clip0_55_733">
<rect width="20" height="20" fill="white" transform="translate(13 13)"/>
</clipPath>
</defs>
</svg>
