<svg width="46" height="46" viewBox="0 0 46 46" fill="none" xmlns="http://www.w3.org/2000/svg">
<circle cx="23" cy="23" r="23" fill="#5F9876"/>
<path d="M30.8711 24.3868H28.5819C28.435 23.61 27.7516 23.0206 26.9328 23.0206C26.8075 23.0206 26.6841 23.0343 26.5636 23.0613C26.2307 22.6358 25.7158 22.3799 25.1677 22.3799C24.9254 22.3799 24.688 22.429 24.4684 22.5235C24.2578 22.2853 23.9939 22.1054 23.7007 21.9957C23.8591 21.4118 24.1277 20.8761 24.4596 20.4089C25.0903 20.7752 25.6455 20.9574 26.138 20.9574C26.3415 20.9574 26.5345 20.9264 26.7177 20.8645C27.7277 20.5234 28.1651 19.3591 28.5881 18.2331C28.8912 17.4263 29.2046 16.5919 29.681 16.3252C29.8038 16.2565 29.8655 16.1142 29.8317 15.9776C29.798 15.841 29.6771 15.7438 29.5364 15.7402C26.2863 15.6554 24.5173 16.8313 23.9453 17.9595C23.6096 18.6214 23.635 19.3379 24.0064 19.9649C23.8391 20.1947 23.6875 20.4366 23.5542 20.6876C23.3489 19.7263 23.0413 18.8333 22.6475 18.0648C22.645 18.0599 22.6425 18.0551 22.64 18.0503C23.1664 17.4441 23.3077 16.6785 23.0255 15.9304C22.579 14.7469 20.9476 13.3866 17.7077 13.1183C17.5676 13.1065 17.4368 13.1902 17.3885 13.3223C17.3401 13.4545 17.3861 13.6026 17.5006 13.6842C17.9453 14.001 18.1664 14.8644 18.3804 15.6993C18.6789 16.8645 18.9875 18.0694 19.9546 18.5179C20.1951 18.6295 20.4601 18.6854 20.7521 18.6854C21.1505 18.6854 21.5992 18.5812 22.1042 18.3722C22.583 19.3134 22.9383 20.4896 23.11 21.7863C23.1018 21.8157 23.094 21.8451 23.0862 21.8746C23.0649 21.8739 23.0437 21.8729 23.0223 21.8729C22.4546 21.8729 21.9277 22.1169 21.5636 22.5375C21.3353 22.4339 21.087 22.3799 20.8323 22.3799C20.2842 22.3799 19.7693 22.6359 19.4364 23.0614C19.3159 23.0343 19.1925 23.0206 19.0672 23.0206C18.2484 23.0206 17.565 23.6101 17.4181 24.3868H15.1289C14.9563 24.3868 14.8164 24.5267 14.8164 24.6993C14.8164 29.2117 18.4875 32.8828 23 32.8828C27.5125 32.8828 31.1836 29.2117 31.1836 24.6992C31.1836 24.5266 31.0437 24.3868 30.8711 24.3868ZM20.2176 17.9509C19.5193 17.6271 19.2481 16.5683 18.9858 15.5443C18.8239 14.9126 18.6679 14.3034 18.4113 13.8288C20.8623 14.1991 22.1113 15.2778 22.4407 16.151C22.6143 16.6113 22.5639 17.0667 22.3036 17.4616C21.8031 16.6729 21.2131 16.097 20.574 15.779C20.4195 15.7021 20.2319 15.7651 20.155 15.9196C20.0781 16.0741 20.1411 16.2617 20.2956 16.3386C20.8488 16.6138 21.3595 17.1301 21.7943 17.8227C21.1306 18.085 20.6012 18.1288 20.2176 17.9509ZM24.5027 18.2421C24.9248 17.4097 26.283 16.4726 28.7601 16.3702C28.4535 16.8142 28.2323 17.4029 28.003 18.0134C27.6312 19.0029 27.2469 20.0261 26.5177 20.2724C26.0943 20.4154 25.5359 20.2945 24.8556 19.915C25.3961 19.3154 26.0311 18.8761 26.6148 18.661C26.7768 18.6013 26.8597 18.4216 26.8 18.2597C26.7404 18.0977 26.5607 18.0148 26.3987 18.0745C25.6779 18.3402 25.001 18.8228 24.4395 19.4353C24.2828 19.0496 24.3021 18.6379 24.5027 18.2421ZM19.0672 23.6456C19.2001 23.6456 19.3295 23.6699 19.4518 23.718C19.5961 23.7746 19.7602 23.717 19.8373 23.5823C20.0412 23.2261 20.4224 23.0049 20.8323 23.0049C21.0629 23.0049 21.2851 23.0731 21.475 23.2021C21.5451 23.2497 21.6316 23.2668 21.7146 23.2495C21.7976 23.2321 21.87 23.1818 21.9151 23.11C22.1563 22.7267 22.5702 22.4978 23.0222 22.4978C23.4663 22.4978 23.8761 22.7204 24.1186 23.0932C24.2123 23.2373 24.4049 23.2787 24.5495 23.1858C24.7337 23.0674 24.9475 23.0048 25.1677 23.0048C25.5775 23.0048 25.9588 23.2261 26.1627 23.5823C26.2397 23.7169 26.4038 23.7746 26.5481 23.7179C26.6705 23.6699 26.7999 23.6455 26.9328 23.6455C27.405 23.6455 27.8057 23.9578 27.9392 24.3867H18.0608C18.1943 23.9579 18.5949 23.6456 19.0672 23.6456ZM22.8545 25.1649C22.9528 25.3209 23.0544 25.4822 23.1736 25.6446C23.5296 26.1298 23.5869 26.321 23.5952 26.3798C23.545 26.4089 23.4266 26.4458 23.3448 26.4713C22.9122 26.6058 22.1106 26.8551 22.1014 28.1186C21.9729 28.6827 21.8434 28.8218 21.7063 28.9689C21.5164 29.1727 21.3625 29.3706 21.2568 29.8949C21.2326 29.9806 21.1423 30.072 21.0606 30.0925C21.0269 30.101 21.0136 30.0945 20.993 30.0718C20.9887 30.067 20.9842 30.0624 20.9796 30.0579C20.8056 29.8884 20.7737 29.6938 20.728 29.3361C20.6683 28.8681 20.5865 28.2276 19.9508 27.4635C19.6914 27.1252 19.689 26.837 19.6866 26.5318C19.6832 26.1262 19.6791 25.6214 18.9843 25.2197C18.8679 25.1524 18.7574 25.0832 18.6505 25.0118H22.7574C22.7891 25.0611 22.8214 25.1123 22.8545 25.1649ZM23 32.2578C18.9367 32.2578 15.612 29.0354 15.4478 25.0117H17.6328C17.9523 25.2972 18.285 25.5374 18.6715 25.7608C19.0571 25.9837 19.0586 26.1686 19.0616 26.5369C19.0645 26.8961 19.0681 27.3431 19.4595 27.8498C19.462 27.853 19.4644 27.856 19.4669 27.8591C19.9893 28.4851 20.0524 28.9792 20.1081 29.4151C20.1555 29.7867 20.2046 30.1709 20.5369 30.499C20.672 30.6443 20.8472 30.7211 21.035 30.7211C21.0932 30.7211 21.1527 30.7138 21.2125 30.6988C21.5187 30.6221 21.7868 30.3517 21.8645 30.0413C21.8657 30.0363 21.8669 30.0314 21.8679 30.0264C21.9474 29.6268 22.038 29.5296 22.1635 29.395C22.3362 29.2096 22.5512 28.9789 22.7189 28.2209C22.7239 28.1983 22.7263 28.1752 22.7263 28.152C22.7224 27.3193 23.0968 27.2029 23.5304 27.0681C23.7932 26.9863 24.0911 26.8936 24.192 26.5872C24.292 26.2836 24.1477 25.9156 23.6774 25.2747C23.6143 25.1888 23.5552 25.1002 23.4979 25.0117H27.3677C27.3046 25.1289 27.2211 25.252 27.1314 25.3841C26.8309 25.8272 26.4568 26.3787 26.5619 27.1822C26.6679 27.9922 27.2607 28.9197 28.3718 30.0116C27.0009 31.3978 25.099 32.2578 23 32.2578ZM28.7929 29.5489C27.8093 28.5785 27.2673 27.7558 27.1817 27.1012C27.1074 26.5331 27.3703 26.1454 27.6488 25.735C27.8036 25.5066 27.9622 25.2725 28.0462 25.0117H30.5523C30.4819 26.7345 29.8319 28.31 28.7929 29.5489Z" fill="white"/>
<path d="M35.9434 9.04339C32.5471 5.89207 27.9986 3.96533 23 3.96533C12.4875 3.96533 3.96552 12.4874 3.96552 22.9998C3.96552 33.5123 12.4875 42.0343 23 42.0343C33.5125 42.0343 42.0345 33.5123 42.0345 22.9998C42.0345 19.4492 41.0623 16.1257 39.3697 13.2808" stroke="white"/>
<circle cx="35.2931" cy="9.12045" r="1.98276" fill="white"/>
</svg>
