<svg width="95" height="30" viewBox="0 0 95 30" fill="none" xmlns="http://www.w3.org/2000/svg">
<rect x="0.5" y="0.5" width="94" height="29" rx="3.5" fill="#F395A6" stroke="#F395A6"/>
<path d="M80.3093 4H71.425H7C5.34315 4 4 5.34315 4 7V23C4 24.6569 5.34315 26 7 26H88C89.6569 26 91 24.6569 91 23V7C91 5.34315 89.6569 4 88 4H86.1063" stroke="white" stroke-linecap="round"/>
<path d="M15.7655 12.6719V11.7273H21.3941V12.6719H19.1249V19H18.0312V12.6719H15.7655ZM23.7352 11.7273V19H22.6379V11.7273H23.7352ZM25.3332 19V11.7273H26.4305V18.0554H29.7259V19H25.3332ZM30.9777 19V11.7273H32.075V18.0554H35.3705V19H30.9777ZM36.6222 19V11.7273H41.1322V12.6719H37.7195V14.8878H40.809V15.8288H37.7195V19H36.6222ZM42.1878 19H41.023L43.6402 11.7273H44.9079L47.5251 19H46.3604L44.3042 13.0483H44.2474L42.1878 19ZM42.3831 16.152H46.1615V17.0753H42.3831V16.152ZM43.2318 10.8714C43.0637 10.8714 42.9169 10.8099 42.7915 10.6868C42.666 10.5613 42.6032 10.4169 42.6032 10.2536C42.6032 10.076 42.666 9.92803 42.7915 9.80966C42.9169 9.69129 43.0637 9.6321 43.2318 9.6321C43.4094 9.6321 43.5573 9.69129 43.6757 9.80966C43.7964 9.92803 43.8568 10.076 43.8568 10.2536C43.8568 10.4169 43.7964 10.5613 43.6757 10.6868C43.5573 10.8099 43.4094 10.8714 43.2318 10.8714ZM45.3199 10.8714C45.1518 10.8714 45.005 10.8099 44.8795 10.6868C44.7541 10.5613 44.6913 10.4169 44.6913 10.2536C44.6913 10.076 44.7541 9.92803 44.8795 9.80966C45.005 9.69129 45.1518 9.6321 45.3199 9.6321C45.4974 9.6321 45.6454 9.69129 45.7638 9.80966C45.8845 9.92803 45.9449 10.076 45.9449 10.2536C45.9449 10.4169 45.8845 10.5613 45.7638 10.6868C45.6454 10.8099 45.4974 10.8714 45.3199 10.8714ZM48.5754 19V11.7273H49.6727V18.0554H52.9681V19H48.5754ZM56.8664 19V11.7273H57.9637V18.0554H61.2591V19H56.8664ZM63.6082 11.7273V19H62.5109V11.7273H63.6082ZM70.1281 14.0249C70.0595 13.8094 69.9671 13.6165 69.8511 13.446C69.7375 13.2732 69.6014 13.1264 69.4427 13.0057C69.2841 12.8826 69.103 12.7891 68.8994 12.7251C68.6982 12.6612 68.4768 12.6293 68.2354 12.6293C67.8258 12.6293 67.4565 12.7346 67.1274 12.9453C66.7983 13.156 66.5379 13.465 66.3461 13.8722C66.1568 14.277 66.0621 14.773 66.0621 15.3601C66.0621 15.9496 66.1579 16.4479 66.3497 16.8551C66.5415 17.2623 66.8042 17.5713 67.1381 17.782C67.4719 17.9927 67.8518 18.098 68.278 18.098C68.6733 18.098 69.0178 18.0175 69.3113 17.8565C69.6073 17.6955 69.8357 17.4683 69.9967 17.1747C70.1601 16.8788 70.2417 16.5308 70.2417 16.1307L70.5258 16.1839H68.4449V15.2784H71.3035V16.1058C71.3035 16.7166 71.1733 17.2469 70.9129 17.6967C70.6549 18.1442 70.2974 18.4898 69.8405 18.7337C69.3859 18.9775 68.8651 19.0994 68.278 19.0994C67.6198 19.0994 67.0422 18.9479 66.545 18.6449C66.0502 18.3419 65.6643 17.9122 65.3873 17.3558C65.1104 16.7971 64.9719 16.1342 64.9719 15.3672C64.9719 14.7872 65.0523 14.2663 65.2133 13.8047C65.3743 13.343 65.6004 12.9512 65.8916 12.6293C66.1852 12.3049 66.5296 12.0575 66.925 11.8871C67.3227 11.7143 67.7571 11.6278 68.2282 11.6278C68.6212 11.6278 68.987 11.6858 69.3256 11.8018C69.6665 11.9179 69.9695 12.0824 70.2346 12.2955C70.5022 12.5085 70.7235 12.7618 70.8987 13.0554C71.0739 13.3466 71.1923 13.6697 71.2538 14.0249H70.1281ZM73.0862 19H71.9214L74.5386 11.7273H75.8064L78.4236 19H77.2588L75.2027 13.0483H75.1459L73.0862 19ZM73.2815 16.152H77.0599V17.0753H73.2815V16.152Z" fill="white"/>
<circle cx="86" cy="4" r="2" fill="white"/>
</svg>
