<svg width="46" height="46" viewBox="0 0 46 46" fill="none" xmlns="http://www.w3.org/2000/svg">
<circle cx="23" cy="23" r="23" fill="#7A7A7A"/>
<path d="M35.9435 9.04339C32.5471 5.89207 27.9986 3.96533 23.0001 3.96533C12.4876 3.96533 3.96558 12.4874 3.96558 22.9998C3.96558 33.5123 12.4876 42.0343 23.0001 42.0343C33.5125 42.0343 42.0345 33.5123 42.0345 22.9998C42.0345 19.4492 41.0624 16.1257 39.3697 13.2808" stroke="white"/>
<circle cx="35.2931" cy="9.12045" r="1.98276" fill="white"/>
<mask id="mask0_41_558" style="mask-type:luminance" maskUnits="userSpaceOnUse" x="13" y="13" width="20" height="20">
<path d="M13 13H33V33H13V13Z" fill="white"/>
</mask>
<g mask="url(#mask0_41_558)">
<path d="M16.2227 20.6562H31.5352C32.1823 20.6562 32.707 21.1809 32.707 21.8281V26.5156" stroke="white" stroke-width="0.5" stroke-miterlimit="10" stroke-linecap="round" stroke-linejoin="round"/>
<path d="M20.6562 20.6562L23 18.3125H14.4648C13.8177 18.3125 13.293 18.8372 13.293 19.4844C13.293 20.1316 13.8177 20.6562 14.4648 20.6562H15.0508" stroke="white" stroke-width="0.5" stroke-miterlimit="10" stroke-linecap="round" stroke-linejoin="round"/>
<path d="M25.3437 25.3438L23 27.6875H31.5352C32.1823 27.6875 32.707 27.1628 32.707 26.5156C32.707 25.8684 32.1823 25.3438 31.5352 25.3438H14.4648C13.8177 25.3438 13.293 24.8191 13.293 24.1719V19.4844" stroke="white" stroke-width="0.5" stroke-miterlimit="10" stroke-linecap="round" stroke-linejoin="round"/>
<path d="M17.2195 21.8281L18.0208 24.1367C18.0376 24.1839 18.1046 24.1835 18.1207 24.136L18.886 21.8324" stroke="white" stroke-width="0.5" stroke-miterlimit="10" stroke-linecap="round" stroke-linejoin="round"/>
<path d="M20.6939 21.8281H19.7063V24.1719H20.6939" stroke="white" stroke-width="0.5" stroke-miterlimit="10" stroke-linecap="round" stroke-linejoin="round"/>
<path d="M20.621 23H19.7063" stroke="white" stroke-width="0.5" stroke-miterlimit="10" stroke-linecap="round" stroke-linejoin="round"/>
<path d="M23.4247 22.0282C23.2377 21.9019 23.0122 21.8281 22.7695 21.8281C22.1223 21.8281 21.5977 22.3528 21.5977 23C21.5977 23.6472 22.1223 24.1719 22.7695 24.1719C23.4167 24.1719 23.7811 23.6472 23.7811 23H23.08" stroke="white" stroke-width="0.5" stroke-miterlimit="10" stroke-linecap="round" stroke-linejoin="round"/>
<path d="M24.4912 24.1719L25.3712 21.8611C25.3893 21.8172 25.4515 21.8171 25.4696 21.8611L26.3416 24.1719" stroke="white" stroke-width="0.5" stroke-miterlimit="10" stroke-linecap="round" stroke-linejoin="round"/>
<path d="M24.7104 23.5962H26.1245" stroke="white" stroke-width="0.5" stroke-miterlimit="10" stroke-linecap="round" stroke-linejoin="round"/>
<path d="M27.162 24.1719V21.8281L28.7805 24.1719V21.8281" stroke="white" stroke-width="0.5" stroke-miterlimit="10" stroke-linecap="round" stroke-linejoin="round"/>
<path d="M27.7852 19.4844C27.7852 16.7661 25.5816 14.5625 22.8633 14.5625C22.8633 17.2807 25.0669 19.4844 27.7852 19.4844ZM27.7852 19.4844C30.5034 19.4844 32.707 17.2807 32.707 14.5625C29.9888 14.5625 27.7852 16.7661 27.7852 19.4844Z" stroke="white" stroke-width="0.5" stroke-miterlimit="10" stroke-linecap="round" stroke-linejoin="round"/>
<path d="M18.2148 26.5156C18.2148 29.2339 20.4184 31.4375 23.1367 31.4375C23.1367 28.7193 20.9331 26.5156 18.2148 26.5156ZM18.2148 26.5156C15.4966 26.5156 13.293 28.7193 13.293 31.4375C16.0112 31.4375 18.2148 29.2339 18.2148 26.5156Z" stroke="white" stroke-width="0.5" stroke-miterlimit="10" stroke-linecap="round" stroke-linejoin="round"/>
</g>
<path d="M15.0938 20.6523C15.2773 20.6523 15.4603 20.668 15.6437 20.668C15.9187 20.668 16.1937 20.668 16.4688 20.668" stroke="white" stroke-width="0.4" stroke-linecap="round"/>
<path d="M15.1523 20.7147C15.1532 20.7073 15.2513 20.7027 15.2578 20.7021C15.3094 20.6976 15.3613 20.6991 15.4132 20.6991C15.5331 20.6991 15.6533 20.6952 15.7734 20.6952C15.8212 20.6952 15.873 20.7005 15.9203 20.695C15.9388 20.6928 15.9583 20.6874 15.9767 20.6874C16.0041 20.6874 16.0314 20.6874 16.0588 20.6874C16.0886 20.6874 16.1185 20.6874 16.1484 20.6874C16.1595 20.6874 16.1705 20.6874 16.1816 20.6874C16.1996 20.6874 16.169 20.6874 16.164 20.6874C16.136 20.6874 16.1078 20.6866 16.0798 20.6874C16.0657 20.6878 16.0514 20.6943 16.0382 20.6982C16.023 20.7028 15.9995 20.703 15.9835 20.703C15.8942 20.703 15.7991 20.7069 15.7076 20.7069C15.5413 20.7069 15.375 20.7069 15.2087 20.7069C15.1644 20.7069 15.12 20.7069 15.0757 20.7069C15.0614 20.7069 15.0452 20.71 15.031 20.7128C15.0192 20.715 15.0027 20.7225 15.0234 20.7225" stroke="white" stroke-width="0.4" stroke-linecap="round"/>
<path d="M15.1445 20.6016C15.1686 20.6153 15.2179 20.6055 15.2461 20.6055C15.2804 20.6055 15.3148 20.6094 15.3494 20.6094C15.4285 20.6094 15.5077 20.6094 15.5868 20.6094C15.6346 20.6094 15.6841 20.6112 15.7318 20.6141C15.8119 20.6191 15.8924 20.6172 15.9727 20.6172C16.1824 20.6172 16.392 20.6133 16.6016 20.6133" stroke="white" stroke-width="0.4" stroke-linecap="round"/>
</svg>
