<svg width="46" height="46" viewBox="0 0 46 46" fill="none" xmlns="http://www.w3.org/2000/svg">
<circle cx="23" cy="23" r="23" fill="#3E4C59"/>
<path d="M35.9435 9.04339C32.5471 5.89207 27.9986 3.96533 23.0001 3.96533C12.4876 3.96533 3.96558 12.4874 3.96558 22.9998C3.96558 33.5123 12.4876 42.0343 23.0001 42.0343C33.5125 42.0343 42.0345 33.5123 42.0345 22.9998C42.0345 19.4492 41.0624 16.1257 39.3697 13.2808" stroke="white"/>
<circle cx="35.2931" cy="9.12045" r="1.98276" fill="white"/>
<g clip-path="url(#clip0_41_563)">
<path d="M32.5659 22.1035C32.9596 21.7198 33.0986 21.1567 32.9288 20.6333C32.7586 20.1099 32.3152 19.7362 31.7706 19.6569L26.928 18.9533C26.7217 18.9232 26.5435 18.7939 26.4514 18.6069L24.2864 14.2188C24.0433 13.7258 23.5499 13.4194 23 13.4194C22.4506 13.4194 21.9572 13.7258 21.7141 14.2188L19.5487 18.6069C19.4566 18.7939 19.278 18.9232 19.0717 18.9533L14.2291 19.6573C13.6849 19.7362 13.2415 20.1099 13.0713 20.6333C12.9015 21.1567 13.0405 21.7198 13.4342 22.1035L16.938 25.5188C17.0873 25.6645 17.1558 25.8744 17.1206 26.0794L16.2936 30.9024C16.2007 31.4443 16.4189 31.9813 16.8639 32.3049C17.3084 32.6289 17.8871 32.6709 18.3745 32.4142L22.7053 30.1371C22.8899 30.0402 23.1102 30.0402 23.2948 30.1371L27.626 32.4142C27.8374 32.5256 28.0665 32.5804 28.2944 32.5804C28.5903 32.5804 28.8851 32.4879 29.1366 32.3049C29.5815 31.9813 29.7998 31.4443 29.7069 30.9024L28.8795 26.0798C28.8443 25.8744 28.9127 25.6649 29.0621 25.5192L32.5659 22.1035ZM28.0905 26.2152L28.9175 31.0378C28.9592 31.2805 28.8651 31.5123 28.6656 31.6573C28.4658 31.8019 28.2171 31.8195 27.9988 31.7058L23.6676 29.4282C23.459 29.3189 23.2291 29.2636 23 29.2636C22.771 29.2636 22.5415 29.3189 22.3324 29.4286L18.002 31.7058C17.783 31.8195 17.5343 31.8019 17.3348 31.6573C17.1354 31.5123 17.0417 31.2809 17.0829 31.0378L17.9099 26.2152C17.9896 25.7498 17.8354 25.2749 17.4974 24.9457L13.9932 21.53C13.8166 21.3578 13.7565 21.1151 13.833 20.8808C13.9091 20.6461 14.1002 20.4851 14.3441 20.4495L19.1863 19.7458C19.6536 19.6781 20.0577 19.385 20.2664 18.9613L22.4318 14.5732C22.5407 14.3522 22.7533 14.2204 22.9996 14.2204C23.2463 14.2204 23.4586 14.3522 23.5679 14.5732L25.7333 18.9613C25.942 19.385 26.3457 19.6781 26.813 19.7458L31.6556 20.4495C31.8995 20.4851 32.0905 20.6461 32.1666 20.8808C32.2427 21.1151 32.1831 21.3578 32.0064 21.53L28.5026 24.9453C28.1646 25.2749 28.0105 25.7494 28.0905 26.2152Z" fill="white"/>
</g>
<defs>
<clipPath id="clip0_41_563">
<rect width="20" height="20" fill="white" transform="translate(13 13)"/>
</clipPath>
</defs>
</svg>
